<svg width="35" height="35" viewBox="0 0 35 35" fill="none" xmlns="http://www.w3.org/2000/svg">
<g clip-path="url(#clip0)">
<path d="M0.0169678 17.501C0.0169678 27.1564 7.84414 34.9835 17.4995 34.9835C27.1548 34.9835 34.982 27.1564 34.982 17.501C34.982 7.84571 27.155 0.0183105 17.4997 0.0183105C17.4983 0.0183105 17.4967 0.0183105 17.4953 0.0183105C7.84227 0.0183105 0.0172011 7.84361 0.0172011 17.4964C0.0169678 17.498 0.0169678 17.4994 0.0169678 17.501Z" fill="#EDEDED"/>
<path d="M4.11832 28.2414C2.26519 26.1883 1.32299 22.4643 1.18066 19.7357C0.960392 16.6147 1.38553 13.4817 2.42946 10.5324C2.58719 10.1728 2.42339 9.75328 2.06359 9.59578C2.02393 9.57828 1.98263 9.56474 1.94063 9.55471C6.32846 0.953811 16.8579 -2.46149 25.4588 1.92658C34.0597 6.31464 37.4747 16.8438 33.0869 25.4445C28.7287 33.9873 18.3017 37.4243 9.71786 33.1475C9.42456 33.0054 9.14012 32.8498 8.86012 32.703C8.15756 32.3082 7.48462 31.8625 6.84692 31.3697C6.19592 30.8751 5.58529 30.3298 5.02039 29.7387C4.85589 29.5787 4.70049 29.4144 4.54929 29.2455L4.33602 29.0009C4.39716 28.7384 4.32203 28.4629 4.13606 28.2676" fill="#EDEDED"/>
<path d="M0.0118799 17.5002C0.00371323 21.8349 1.61581 26.016 4.53131 29.2234H4.60691C4.74015 29.2234 4.86031 29.3477 4.91351 29.4455C4.96695 29.5433 4.97581 29.6366 5.02015 29.7211C5.57968 30.3083 6.18448 30.8506 6.82895 31.3432H6.98015C7.18898 31.3432 7.22002 31.4454 7.31335 31.601C7.42652 31.7945 7.59522 31.9494 7.79775 32.0455C8.02968 32.1286 8.26932 32.1883 8.51315 32.2233C8.66435 32.2544 8.72642 32.2632 8.77985 32.4188C8.80948 32.5175 8.83025 32.6186 8.84215 32.721C9.12215 32.8811 9.40658 33.0365 9.69988 33.1655C9.69988 32.7523 9.41545 32.41 9.40215 31.9923C9.40892 31.8962 9.40892 31.7996 9.40215 31.7035C9.37998 31.5924 9.31768 31.5702 9.27778 31.4769C9.23788 31.3835 9.16672 31.1213 9.27778 31.0324C9.38885 30.9435 9.58882 30.9125 9.62895 30.6948C9.63782 30.6329 9.63782 30.5699 9.62895 30.5081C9.60352 30.2974 9.62312 30.0839 9.68682 29.8816C9.77198 29.7187 9.94862 29.6252 10.1313 29.6462C10.2914 29.6462 10.4335 29.7528 10.5758 29.6952C10.6603 29.6686 10.7002 29.5752 10.7802 29.5484C10.8462 29.5351 10.9141 29.5351 10.9802 29.5484H11.5934C11.7474 29.5344 11.8976 29.4938 12.0379 29.4285C12.2556 29.3617 12.309 29.2551 12.4245 29.0953C12.54 28.9352 12.6334 28.8687 12.7178 28.7397C12.7489 28.6953 12.7934 28.6552 12.82 28.6153C12.8525 28.543 12.8807 28.4688 12.9045 28.3932C12.9712 28.2644 13.1311 28.2198 13.1801 28.0733C13.209 27.9386 13.209 27.7991 13.1801 27.6645C13.1801 27.5578 13.0823 27.3889 13.1311 27.2911C13.1798 27.1933 13.3709 27.2155 13.4598 27.2155C13.6253 27.2144 13.7776 27.3051 13.8553 27.451C13.9379 27.5539 13.9876 27.6794 13.9974 27.811C14.0128 27.9274 14.0128 28.0455 13.9974 28.1622C13.962 28.3043 13.793 28.34 13.7263 28.4688C13.6596 28.5976 13.6908 28.802 13.6196 28.9531C13.5693 29.0647 13.545 29.1863 13.5485 29.3088C13.5042 29.5976 13.2374 29.6555 12.9929 29.6464C12.8952 29.6464 12.624 29.5974 12.5484 29.6954C12.4728 29.7931 12.5484 30.0687 12.5484 30.1798C12.5351 30.2785 12.5351 30.3788 12.5484 30.4775C12.5946 30.6105 12.6798 30.7267 12.793 30.8107C12.9334 30.9654 13.1045 31.0895 13.2951 31.1752C13.4437 31.2715 13.6099 31.3381 13.7839 31.3707C13.958 31.3885 14.1302 31.4197 14.2994 31.4641C14.5021 31.4783 14.7037 31.5035 14.9037 31.5397C15.0204 31.5943 15.1424 31.636 15.2681 31.664C15.3465 31.6708 15.4254 31.6708 15.5036 31.664C15.5761 31.6598 15.6487 31.6598 15.7213 31.664C15.8557 31.6799 15.9913 31.6799 16.1257 31.664C16.2134 31.6241 16.2978 31.5781 16.379 31.5264C16.4675 31.4869 16.5625 31.4645 16.6591 31.4596C16.8569 31.4398 17.0567 31.4533 17.2501 31.4995C17.4412 31.5574 17.7256 31.6551 17.9167 31.5394C18.0101 31.486 17.9923 31.4771 18.0367 31.3882C18.0824 31.3306 18.1328 31.2771 18.1879 31.2281C18.2457 31.1747 18.379 31.0636 18.3834 30.9836C18.3878 30.9036 18.33 30.8814 18.3078 30.8459C18.2145 30.7083 18.1123 30.5748 18.0278 30.4327C17.8724 30.2486 17.7613 30.0312 17.7035 29.7971C17.6829 29.6392 17.6967 29.4784 17.7434 29.326C17.801 29.0215 17.819 28.7107 17.7968 28.4018C17.8236 28.2177 17.8115 28.0299 17.7613 27.8507C17.717 27.7485 17.6281 27.6773 17.6057 27.5618C17.5812 27.3149 17.5812 27.0664 17.6057 26.8196C17.6057 26.6329 17.5168 26.2374 17.7301 26.1662C18.0544 26.0507 18.2233 26.3529 18.21 26.6107C18.2343 26.8111 18.27 27.01 18.3167 27.2062C18.2922 27.3756 18.2922 27.5478 18.3167 27.7172C18.379 27.8773 18.5432 27.9482 18.6233 28.0861C18.6566 28.2413 18.6566 28.402 18.6233 28.5572C18.6132 28.7254 18.6454 28.8934 18.7166 29.046C18.8043 29.1986 18.8774 29.3594 18.9343 29.526C18.9653 29.8095 18.9653 30.0956 18.9343 30.3793C18.9019 30.66 18.973 30.9428 19.1343 31.1747C19.2409 31.2991 19.2854 31.3304 19.1343 31.4326C18.9065 31.5742 18.6671 31.696 18.4189 31.797C18.238 31.8523 18.0626 31.9237 17.8946 32.0103C17.7546 32.0752 17.6041 32.1143 17.4501 32.1258C17.2412 32.1792 17.0324 32.2457 16.8324 32.308C16.7479 32.3391 16.4992 32.308 16.468 32.4058C16.5858 32.5829 16.7888 32.6844 17.0011 32.6725C17.2151 32.6895 17.4253 32.7406 17.6232 32.8237C17.7823 32.8909 17.9319 32.9791 18.0677 33.086C18.224 33.2456 18.4399 33.3326 18.6632 33.3258C18.9005 33.3065 19.1394 33.3277 19.3697 33.3881C19.652 33.5148 19.9514 33.5986 20.2585 33.6371H20.703C20.9741 33.6103 21.2476 33.6194 21.5161 33.6637C21.8797 33.7288 22.2493 33.754 22.6182 33.7393H22.907C23.173 33.6938 23.446 33.7136 23.7025 33.7971L23.8002 33.8595C26.7321 32.7173 29.2987 30.8005 31.2261 28.3134C31.1047 28.2394 31.0016 28.139 30.9239 28.0201C30.8842 27.9407 30.8586 27.8549 30.8483 27.7667C30.7806 27.6269 30.737 27.4766 30.7195 27.3222C30.7454 27.1572 30.7809 26.9941 30.8261 26.8333C30.8261 26.6821 30.8616 26.3312 30.7239 26.229C30.5863 26.1268 30.4351 26.1891 30.3329 26.1667C30.2216 26.1301 30.1156 26.0792 30.0174 26.0155C29.7551 25.8599 29.7684 25.7045 29.8662 25.4466C29.9152 25.3134 29.9241 25.1799 29.9595 25.0467C30.0176 24.885 30.1033 24.7347 30.2129 24.6022C30.3252 24.3973 30.4019 24.175 30.4395 23.9444C30.4586 23.8324 30.5027 23.726 30.5683 23.6334C30.6038 23.6024 30.6616 23.5755 30.7015 23.5445C30.8163 23.3994 30.905 23.2356 30.9638 23.0601C31.0445 22.8993 31.1463 22.75 31.266 22.6156C31.4438 22.4289 31.6127 22.2467 31.777 22.0423C31.8836 21.9179 32.0215 21.8246 32.119 21.7047C32.2168 21.5847 32.2257 21.4601 32.3013 21.3579C32.3939 21.2662 32.4704 21.1596 32.5278 21.0425C32.6972 20.7226 32.8244 20.3819 32.9056 20.0293C32.9278 19.6905 32.9278 19.3506 32.9056 19.0118C32.903 18.8027 32.8806 18.5943 32.8389 18.3897C32.809 18.2537 32.7579 18.1232 32.6877 18.0031C32.6464 17.9506 32.6135 17.8922 32.5899 17.8297C32.5899 17.7009 32.6254 17.5541 32.5899 17.412C32.5437 17.3133 32.4735 17.2277 32.3855 17.1631C32.2408 17.0228 32.1043 16.8744 31.9767 16.7186C31.9009 16.5772 31.8397 16.4283 31.7945 16.2741C31.6951 16.1264 31.5523 16.013 31.3857 15.9497C31.2772 15.8727 31.1446 15.8382 31.0123 15.852C30.807 15.8559 30.6096 15.7717 30.4701 15.621C30.3662 15.5379 30.2764 15.4387 30.2034 15.3277C30.1709 15.2535 30.1324 15.1821 30.0879 15.1144C29.9789 14.969 29.8212 14.868 29.6434 14.83H29.4833C29.3769 14.8386 29.2698 14.8386 29.1634 14.83C29.0346 14.83 28.9056 14.781 28.7723 14.7632C28.654 14.7544 28.5353 14.7544 28.4167 14.7632H28.1589C27.9865 14.7446 27.8122 14.7551 27.6435 14.7943C27.2246 15.0201 26.7911 15.2175 26.3459 15.3853C26.0925 15.4432 25.826 15.4119 25.5726 15.4609C25.4683 15.4807 25.3612 15.4807 25.2572 15.4609C25.0838 15.4075 24.9104 15.3277 24.7373 15.4299C24.6617 15.4742 24.6041 15.5542 24.5373 15.5988C24.4706 15.6431 24.3684 15.6744 24.2928 15.7276C24.1689 15.8174 24.0609 15.9269 23.9729 16.0519C23.8397 16.2386 23.6929 16.412 23.5552 16.5851C23.4862 16.7167 23.4075 16.8429 23.3198 16.9629C23.2176 17.0739 23.0309 17.0872 22.911 17.185C22.7911 17.2828 22.7509 17.5005 22.5554 17.545C22.4313 17.5672 22.3095 17.5999 22.1909 17.6428C22.0754 17.6827 21.9242 17.6962 21.8486 17.7984C21.711 17.9895 21.7065 18.2429 21.5199 18.4116C21.3332 18.5803 20.9111 18.9448 21 19.3314C21.0712 19.6513 21.3376 19.9092 21.4445 20.2202C21.4881 20.3336 21.4975 20.4573 21.4711 20.5758C21.4361 20.6477 21.4065 20.7219 21.3822 20.7979C21.3911 20.9223 21.3911 21.0469 21.3822 21.1713C21.3341 21.2842 21.276 21.3929 21.2088 21.4956C21.1111 21.6645 21.031 21.8468 20.9377 22.0199C20.8418 22.2171 20.6624 22.3608 20.4489 22.411C20.3831 22.4261 20.3147 22.4261 20.2489 22.411C20.1759 22.3837 20.0954 22.3837 20.0223 22.411C19.8891 22.4497 19.7741 22.5349 19.698 22.6508C19.6898 22.7988 19.6898 22.9472 19.698 23.0953C19.6796 23.2752 19.6315 23.4509 19.5559 23.6152C19.4224 23.8135 19.2271 23.9619 19.0003 24.0373C18.8179 24.0858 18.644 24.1624 18.4849 24.2639C18.3615 24.402 18.2705 24.566 18.2182 24.7438C18.116 24.9571 17.8761 25.0017 17.6894 25.1305C17.5795 25.2455 17.4393 25.3272 17.2851 25.3659C17.024 25.3993 16.7596 25.3993 16.4985 25.3659C16.3296 25.3437 16.1831 25.2327 16.0141 25.2014C15.8452 25.1704 15.6275 25.0992 15.5696 24.8992C15.5318 24.734 15.5318 24.5623 15.5696 24.3971C15.6095 24.2683 15.774 24.2459 15.8806 24.1838C16.0157 24.0884 16.166 24.0163 16.3251 23.9706C16.4077 23.9678 16.4897 23.9559 16.5697 23.9351C16.7671 23.8142 16.9454 23.6644 17.0984 23.4906C17.2384 23.3854 17.322 23.2213 17.325 23.0461C17.3563 22.8863 17.3392 22.7208 17.276 22.5706C17.0375 22.5584 16.7983 22.5778 16.565 22.6284C16.337 22.6882 16.103 22.7225 15.8673 22.7306C15.638 22.7617 15.4072 22.6826 15.2453 22.5174C15.0941 22.3041 15.2453 21.9574 14.9919 21.802C14.7625 22.0458 14.5584 22.3123 14.3831 22.5974C14.2455 22.8641 14.1433 23.104 13.8364 23.1929C13.6988 23.2239 13.0053 23.2951 13.0543 22.984C13.0543 22.873 13.2897 22.7752 13.3476 22.6996C13.5368 22.4866 13.6631 22.225 13.7121 21.9441C13.752 21.7175 13.8409 21.7175 14.0142 21.584C14.1876 21.4508 14.2009 21.3351 14.3253 21.2329C14.4774 21.1174 14.5969 20.9641 14.672 20.7884C14.7432 20.6416 14.672 20.3439 14.8097 20.2328C14.9473 20.1217 15.1118 20.1794 15.2184 20.1794C15.3463 20.1549 15.4777 20.1987 15.5652 20.2949C15.6819 20.4087 15.8172 20.5021 15.9651 20.5704C16.0673 20.6859 16.0186 20.8593 16.0186 21.0149C15.9887 21.1645 16.0059 21.3197 16.0676 21.4594C16.2584 21.6825 16.5384 21.8094 16.832 21.8062C17.0275 21.7796 17.0231 21.6106 17.0986 21.4685C17.1686 21.3582 17.2443 21.2513 17.3252 21.1486C17.4202 20.9949 17.5889 20.9022 17.7697 20.9041C17.8435 20.9377 17.8759 21.0247 17.8423 21.0982C17.8393 21.1048 17.8358 21.1113 17.8318 21.1174V21.1885C17.8673 21.2952 18.2184 21.4863 18.2362 21.4907C18.3918 21.5397 18.5605 21.6062 18.6006 21.4151C18.6006 21.3572 18.6006 21.2819 18.6006 21.224C18.6284 21.0149 18.546 20.8066 18.3829 20.6729C18.1785 20.5172 18.0497 20.4374 18.0273 20.1619C18.0269 19.9234 17.9956 19.6859 17.934 19.4553C17.934 19.3753 17.8717 19.2864 17.854 19.1975C17.825 18.9824 17.8117 18.7656 17.8141 18.5486C17.8141 18.3974 17.7562 18.0686 17.9163 17.9753H18.0675C18.1431 17.9753 18.1741 18.0108 18.1697 18.0731C18.2453 18.1708 18.214 18.242 18.3608 18.2863C18.5075 18.3307 18.7784 18.3885 18.885 18.2863C18.9917 18.1841 18.925 18.1664 18.925 18.1085V17.713C18.925 17.602 18.8715 17.3798 18.925 17.2685C18.9784 17.1575 19.156 17.1486 19.2983 17.153C19.4406 17.1575 19.5517 17.153 19.6226 17.0819C19.6938 17.0107 19.6537 16.7531 19.7514 16.6152C19.8492 16.4773 19.9736 16.2776 20.1425 16.3042C20.1959 16.3042 20.2403 16.3665 20.2802 16.3753C20.3705 16.3998 20.4654 16.3998 20.5557 16.3753C20.6089 16.362 20.6598 16.341 20.7069 16.313C20.8068 16.2864 20.9106 16.2773 21.0135 16.2864H21.6312C21.84 16.2864 22.0222 16.3753 22.2266 16.3886C22.551 16.3886 22.5554 16.2286 22.6977 15.9887C22.8398 15.7488 22.9955 15.7043 23.1021 15.5442C23.2486 15.3118 23.3821 15.0715 23.502 14.8244C23.601 14.64 23.6728 14.4426 23.7153 14.2378C23.7687 13.9711 23.3821 14.0733 23.2265 14.0068C23.0708 13.94 22.8977 13.7223 22.7288 13.6556C22.5671 13.6099 22.3991 13.5903 22.2311 13.5977C22.0843 13.5977 21.7866 13.5221 21.6755 13.5977C21.6176 13.6376 21.6221 13.6999 21.5955 13.7534C21.5054 13.885 21.4251 14.0231 21.3556 14.1666C21.3022 14.3222 21.2401 14.4599 21.1911 14.6111C21.1468 14.7478 21.0467 14.8591 20.9155 14.9177C20.7324 14.9679 20.5366 14.9371 20.3777 14.8332C20.2403 14.7649 20.1166 14.6713 20.0132 14.5577C19.9465 14.4555 19.9733 14.3666 19.9598 14.2599C19.9514 14.1638 19.9143 14.0723 19.8532 13.9977C19.7643 13.842 19.6665 13.4778 19.4087 13.5532C19.2843 13.5931 19.1464 13.7664 19.0309 13.8376C18.896 13.9305 18.767 14.0315 18.6443 14.1398C18.5418 14.2317 18.4317 14.315 18.3155 14.3887C18.1487 14.4265 17.9755 14.4265 17.8089 14.3887C17.6001 14.3887 17.4267 14.2511 17.2489 14.3887C17.1346 14.5012 16.9965 14.5861 16.8446 14.6377C16.741 14.6652 16.6355 14.686 16.5291 14.7C16.3557 14.7 16.3734 14.7 16.2981 14.6067C16.2225 14.5133 16.1604 14.389 15.9738 14.3444C15.8172 14.3122 15.6543 14.3512 15.5293 14.451C15.6042 14.6053 15.6902 14.7539 15.7871 14.8955C15.8377 14.9744 15.8265 15.078 15.7605 15.1445C15.7026 15.3001 15.5738 15.4422 15.5251 15.589C15.4831 15.6823 15.4648 15.7845 15.4716 15.8867C15.4875 16.0293 15.4266 16.1698 15.3116 16.2556C15.186 16.3905 15.0348 16.4992 14.8671 16.5755C14.6715 16.6556 14.5383 16.5755 14.3782 16.4645C14.1428 16.3088 14.0359 16.02 13.7249 16.02C13.5116 16.02 13.1516 16.1044 12.9694 15.9621C12.7871 15.82 12.8805 15.6378 12.8583 15.4777C12.8377 15.3438 12.8259 15.2087 12.8228 15.0733C12.8228 14.7712 12.5605 14.6823 12.3074 14.6022C11.9296 14.4823 11.4853 14.3355 11.4186 13.8913C11.795 13.7965 12.1924 13.836 12.5431 14.0023C12.7664 14.1638 12.9733 14.347 13.1607 14.549C13.2624 14.661 13.3907 14.745 13.534 14.7936C13.6362 14.8335 13.734 14.878 13.8406 14.9312C13.9473 14.9847 14.1118 15.2068 14.3117 15.2245C14.4345 15.2334 14.5579 15.2334 14.6806 15.2245C15.334 15.2245 14.8227 14.5756 14.7961 14.238C14.7961 14.0336 14.7961 13.927 15.0094 13.9004C15.2226 13.8738 15.4539 13.8248 15.4539 13.6292C15.4539 13.4337 15.2539 13.3938 15.1562 13.3138C15.001 13.132 14.8363 12.9584 14.6629 12.7939C14.3519 12.5405 13.8763 12.6383 13.4941 12.6383C13.2543 12.6383 13.0496 12.5848 12.792 12.5848C12.6364 12.5848 12.4854 12.5848 12.3475 12.5848H11.903C11.8396 12.576 11.7754 12.576 11.7119 12.5848C11.6328 12.6355 11.5479 12.6756 11.4585 12.7048C11.3302 12.7323 11.1981 12.7398 11.0674 12.7269C10.9053 12.7192 10.7429 12.7297 10.583 12.758C10.4097 12.7979 10.4097 12.9001 10.4318 13.0601C10.454 13.2202 10.4718 13.2734 10.4897 13.38C10.4687 13.4671 10.4101 13.5403 10.3296 13.58C10.2139 13.7251 10.1154 13.8831 10.0363 14.0511C10.0048 14.1171 9.94045 14.161 9.86742 14.1666C9.76475 14.242 9.66675 14.3234 9.57412 14.4111C9.47635 14.5329 9.34008 14.6176 9.18748 14.651C8.89862 14.651 8.60532 14.651 8.29872 14.651C8.17505 14.6711 8.04905 14.6711 7.92538 14.651C7.85095 14.6281 7.79285 14.5698 7.76975 14.4954C7.68552 14.4214 7.59662 14.353 7.50305 14.291C7.27205 14.0331 7.50305 13.5933 7.24522 13.3488C7.02751 13.4955 7.24522 13.7664 7.24522 13.9354C7.25618 14.0537 7.25618 14.1727 7.24522 14.291C7.21838 14.4431 7.13998 14.5812 7.02308 14.682C6.92975 14.7975 6.71648 15.0064 6.54311 14.9086C6.36975 14.8108 6.38748 14.553 6.33872 14.4242C6.27268 14.2765 6.18588 14.1388 6.08088 14.0154C5.82538 13.7606 5.59601 13.4806 5.39651 13.1798C5.31205 13.0109 5.33865 12.8065 5.25441 12.642C5.20541 12.5531 5.14335 12.5132 5.11675 12.4066C5.09015 12.1732 5.09015 11.9378 5.11675 11.7045C5.11978 11.6058 5.10928 11.5071 5.08571 11.4112C5.03158 11.2133 4.96181 11.0201 4.87688 10.8334C4.62348 10.8869 4.47251 11.1179 4.23241 11.1622C4.12765 11.1755 4.02171 11.1755 3.91695 11.1622H3.71698C3.65468 11.1622 3.55248 11.1622 3.49041 11.1622C3.39428 11.0332 3.33851 10.8785 3.33035 10.7177C3.33035 10.5355 3.33035 10.3488 3.33035 10.1754C3.33035 10.0021 3.33035 9.86439 3.33035 9.73092C3.32055 9.59675 3.27458 9.46772 3.19711 9.35759C3.12151 9.25982 3.00601 9.21082 2.97055 9.08645C2.94161 8.86829 2.94161 8.64709 2.97055 8.42869C2.96845 8.31249 3.02118 8.20235 3.11265 8.13095C3.18381 8.07309 3.30375 8.05979 3.36605 7.98885C3.42835 7.91769 3.43721 7.70442 3.43278 7.54435C3.42835 7.38429 3.43278 7.25549 3.43278 7.09985C1.20398 10.1092 0.00394657 13.7559 0.0118799 17.5002Z" fill="url(#paint0_linear)"/>
<path d="M4.47366 6.25691C4.55369 6.23031 4.62486 6.16801 4.70466 6.15028C4.76836 6.15471 4.83206 6.15471 4.89576 6.15028C4.97579 6.12368 5.00239 6.07024 5.04696 6.00351C5.09129 5.93678 5.28683 5.81241 5.28683 5.65678C5.29336 5.57978 5.29336 5.50254 5.28683 5.42578C5.28683 5.35018 5.20236 5.31028 5.18463 5.23911C5.23806 5.12804 5.54909 5.19011 5.62913 5.23911C5.71569 5.28694 5.81509 5.30724 5.91356 5.29698C6.05566 5.27038 6.18026 5.11918 6.27359 5.01698C6.36693 4.91478 6.36249 4.85691 6.42923 4.81701C6.49596 4.77711 6.67819 4.75028 6.78926 4.68821C6.93556 4.61798 7.06343 4.51461 7.16259 4.38604C7.22046 4.30601 7.26479 4.22154 7.32709 4.14618C7.42509 4.05634 7.53219 3.97748 7.64699 3.91074C7.70929 3.86174 7.76249 3.79524 7.82036 3.74181C7.87822 3.68838 8.08706 3.63961 8.23359 3.57288C8.31922 3.53041 8.39996 3.47838 8.47346 3.41724C8.56469 3.34771 8.66689 3.29358 8.77562 3.25718C8.94876 3.19441 9.11326 3.10924 9.26446 3.00378C9.31416 2.96318 9.36946 2.93028 9.42896 2.90601C9.55519 2.85304 9.67326 2.78281 9.78012 2.69718C9.86926 2.64748 9.95536 2.59264 10.038 2.53268C10.1091 2.47038 10.1712 2.45264 10.2113 2.37261C10.2512 2.29258 10.2468 2.19924 10.3047 2.17708C10.3625 2.15491 10.4024 2.17708 10.4559 2.17708C10.5436 2.12481 10.6169 2.05154 10.6691 1.96381C10.7226 1.88821 10.7713 1.87934 10.8514 1.83944C10.9314 1.79954 11.0114 1.73724 11.0959 1.68824C11.1804 1.63924 11.238 1.49271 11.2737 1.34595C11.2737 1.29251 11.3003 1.23931 11.3092 1.19031C14.1876 0.106945 17.3005 -0.199655 20.3349 0.301545C20.3972 0.363845 20.4504 0.394878 20.4682 0.483778C20.4726 0.565212 20.4726 0.646878 20.4682 0.728312C20.4714 0.813478 20.5062 0.894212 20.5659 0.954878C20.632 0.978912 20.7006 0.995245 20.7703 1.00388C20.8429 1.03631 20.9092 1.08134 20.9659 1.13711C21.0237 1.18145 21.0991 1.20385 21.1392 1.26591C21.1777 1.33054 21.1992 1.40404 21.2015 1.47918C21.2104 1.56108 21.2463 1.63784 21.3037 1.69688C21.3649 1.79488 21.3649 1.91901 21.3037 2.01678C21.2529 2.13484 21.1838 2.24428 21.0993 2.34111C21.0665 2.37588 21.0433 2.41881 21.0326 2.46548C21.0326 2.51891 21.0326 2.49651 20.9883 2.53221C20.9439 2.56791 20.7393 2.53221 20.6327 2.62998C20.5928 2.67198 20.5499 2.71048 20.5039 2.74548C20.4595 2.77208 20.415 2.78094 20.3662 2.80778C20.3174 2.83438 20.2241 3.02548 20.1618 3.11881C20.0995 3.21214 20.1308 3.29218 20.1175 3.40324C20.0909 3.59878 19.9308 3.63868 19.7486 3.65221C19.6569 3.64334 19.5647 3.64334 19.473 3.65221L19.362 3.74554C19.3221 3.78101 19.2287 3.82114 19.2063 3.86991V3.95881C19.2063 4.02998 19.2063 4.17208 19.2686 4.22994L19.3974 4.27894C19.473 4.31441 19.642 4.35454 19.6863 4.42571C19.7306 4.49688 19.6863 4.59908 19.6373 4.66558C19.5962 4.76778 19.5057 4.84151 19.3974 4.86111C19.3414 4.88118 19.2801 4.88118 19.2241 4.86111C19.1706 4.83451 19.144 4.77664 19.0864 4.75448C19.0332 4.73581 18.9781 4.72391 18.9219 4.71901C18.8727 4.71691 18.8258 4.69801 18.7887 4.66558L18.713 4.57224C18.6552 4.52324 18.3264 4.49221 18.2998 4.57224C18.2718 4.67631 18.2879 4.78714 18.3442 4.87884C18.402 4.95001 18.4552 4.95444 18.4552 5.05221C18.4552 5.23444 18.3752 5.31891 18.3131 5.49671C18.5115 5.61688 18.7467 5.66098 18.9753 5.62108C19.06 5.61991 19.1433 5.64301 19.2152 5.68781C19.2864 5.74124 19.2731 5.80331 19.2152 5.87004C19.1622 5.98368 19.0967 6.09101 19.0197 6.18994C18.984 6.24758 18.9312 6.29261 18.8685 6.31874C18.7343 6.33648 18.5983 6.33648 18.4641 6.31874C18.3169 6.29961 18.1682 6.29074 18.0196 6.29214C17.913 6.29214 17.744 6.36774 17.6507 6.29214C17.5574 6.21654 17.6064 6.18994 17.5662 6.15448C17.5184 6.12531 17.4619 6.11271 17.4062 6.11901C17.3247 6.13441 17.2412 6.10781 17.184 6.04784C17.0552 5.93234 16.8774 5.99441 16.7395 5.93678C16.6905 5.93678 16.6506 5.88778 16.5974 5.87004C16.5237 5.84951 16.4472 5.84204 16.3709 5.84788C16.2544 5.86701 16.1352 5.85628 16.0241 5.81684C15.9905 5.79164 15.953 5.77204 15.9131 5.75898C15.8571 5.75221 15.8004 5.75221 15.7441 5.75898C15.6769 5.75338 15.61 5.74288 15.5442 5.72794C15.4277 5.71208 15.315 5.67591 15.211 5.62131C15.1043 5.54128 15.1221 5.40361 15.1265 5.27901C15.1218 5.23024 15.1218 5.18124 15.1265 5.13224C15.1265 5.07438 15.1888 5.03004 15.2021 4.97218C14.9177 4.93671 14.6244 4.97218 14.3133 4.97218C14.1222 4.94558 13.8688 4.73674 13.9622 4.52768C13.9988 4.45651 14.0541 4.39678 14.1222 4.35431C14.2146 4.33634 14.3098 4.33634 14.4022 4.35431C14.5152 4.37461 14.6316 4.36551 14.7399 4.32771C14.8687 4.24324 14.9221 4.07431 15.0955 4.05658C15.2093 4.03908 15.3192 4.00151 15.4198 3.94551C15.4809 3.91238 15.5316 3.86338 15.5666 3.80341C15.6109 3.74111 15.62 3.71894 15.5887 3.65664C15.5253 3.57288 15.4364 3.51221 15.3353 3.48328C15.27 3.45318 15.1984 3.43941 15.1265 3.44338C15.0518 3.45878 14.9746 3.45878 14.8999 3.44338C14.8421 3.44338 14.8376 3.39904 14.7977 3.35448C14.6911 3.24784 14.3845 3.29661 14.251 3.30104C14.1253 3.30991 13.999 3.30991 13.8733 3.30104C13.8285 3.28751 13.7823 3.27864 13.7356 3.27444C13.66 3.27444 13.6024 3.35004 13.5489 3.38994C13.4955 3.42984 13.4556 3.46998 13.38 3.45668C13.299 3.42728 13.2127 3.41514 13.1266 3.42121C13.0288 3.44781 13.0067 3.55001 12.9621 3.62561C12.9168 3.69421 12.8613 3.75581 12.7976 3.80784C12.6833 3.89371 12.617 4.02928 12.6198 4.17231C12.7754 4.25678 13.0643 4.28781 13.1485 4.43458C13.2017 4.52744 13.2234 4.63501 13.2108 4.74118C13.1842 4.98104 12.8641 5.00344 12.673 4.99458C12.5638 4.98128 12.4534 4.98128 12.3442 4.99458C12.2553 5.02561 12.2243 5.10564 12.1709 5.17238C12.11 5.25101 12.0171 5.29814 11.9175 5.30118C12.0736 5.57184 12.3606 5.74054 12.673 5.74568C12.8408 5.76038 13.0095 5.73588 13.1663 5.67451C13.2524 5.63624 13.3273 5.57651 13.384 5.50114C13.4194 5.45681 13.4283 5.43884 13.4906 5.43441C13.5776 5.42344 13.6658 5.42344 13.7529 5.43441L13.8506 5.51444C13.9262 5.56788 14.0284 5.57674 14.0728 5.66564C14.1106 5.76481 14.1288 5.87051 14.1262 5.97668C14.1262 6.18551 14.0063 6.24781 13.8285 6.27441C13.7083 6.30451 13.5867 6.32831 13.464 6.34558C13.4017 6.34558 13.3352 6.34558 13.2729 6.34558C13.125 6.33554 12.9766 6.33554 12.8284 6.34558C12.7484 6.34558 12.6863 6.40788 12.6018 6.43448C12.5048 6.46061 12.4044 6.47111 12.3041 6.46551C12.208 6.46714 12.113 6.48674 12.0241 6.52338C11.9536 6.55208 11.878 6.56561 11.802 6.56328C11.4242 6.56328 11.042 6.56328 10.6642 6.56328C10.513 6.56328 10.3621 6.56328 10.2197 6.56328C10.1754 6.56328 10.0909 6.53224 10.0552 6.56328C10.0198 6.59431 9.99736 6.71448 9.97519 6.75881C9.94439 6.80664 9.92736 6.86194 9.92642 6.91888C9.93296 6.97651 9.93296 7.03461 9.92642 7.09224C9.90146 7.16808 9.88069 7.24531 9.86412 7.32324C9.86412 7.45648 9.86412 7.46534 9.96189 7.56778C10.0597 7.66998 10.1308 7.65224 10.2109 7.70544C10.2739 7.75958 10.3509 7.79504 10.433 7.80764H10.6507H11.1573C11.2529 7.80181 11.3472 7.78221 11.4373 7.74978C11.5257 7.71804 11.6188 7.70148 11.7128 7.70078C11.8309 7.69494 11.9462 7.66321 12.0505 7.60744C12.1606 7.54584 12.281 7.50524 12.4061 7.48751C12.473 7.48541 12.5374 7.46021 12.5883 7.41634L12.6861 7.34518L12.7705 7.25628C12.8772 7.20728 12.9705 7.30528 13.0372 7.38064C13.104 7.45624 13.2328 7.60721 13.3394 7.71828C13.3814 7.76938 13.4369 7.80764 13.4995 7.82934C13.5807 7.83821 13.6626 7.83821 13.744 7.82934C13.8329 7.79691 13.9146 7.74698 13.9839 7.68258C14.0658 7.62028 14.1654 7.58598 14.2683 7.58481H15.1837C15.2681 7.61584 15.3304 7.77591 15.3526 7.85151C15.3846 8.11004 15.2761 8.36578 15.0682 8.52258C15.035 8.55664 14.9977 8.58651 14.9571 8.61148C14.8969 8.62361 14.8374 8.63994 14.7793 8.66048C14.6549 8.73164 14.6638 8.90034 14.5082 8.92718C14.3525 8.95401 13.9794 8.92718 13.8861 9.17171C13.8861 9.21161 13.8861 9.26948 13.8506 9.31381C13.8254 9.37844 13.7876 9.43724 13.7396 9.48718C13.6773 9.56721 13.6861 9.66498 13.6196 9.75388C13.4964 9.89411 13.3627 10.0248 13.2197 10.1449C13.1434 10.2317 13.0428 10.2936 12.9308 10.3227C12.6826 10.3626 12.4303 10.3715 12.1797 10.3493C12.0197 10.3493 11.8687 10.3183 11.7042 10.3183H9.65552C9.56662 10.3183 9.50432 10.3183 9.43782 10.2784C9.35569 10.1939 9.30016 10.0873 9.27776 9.97181C9.26889 9.90554 9.26889 9.83811 9.27776 9.77184C9.29386 9.69228 9.32559 9.61668 9.37109 9.54971C9.41286 9.39478 9.42359 9.23331 9.40212 9.07418C9.41356 8.98294 9.38976 8.89078 9.33539 8.81634L9.28196 8.73631C9.21522 8.65628 9.10859 8.63854 9.02412 8.57624C8.93966 8.51394 8.93966 8.43414 8.94409 8.32728V7.98964C8.94852 7.93038 8.94852 7.87111 8.94409 7.81184C8.94409 7.68748 8.82859 7.63404 8.85076 7.49194C8.85939 7.40771 8.88506 7.32604 8.92636 7.25208L9.05959 7.20774C9.14849 7.16784 9.27286 7.07008 9.27729 6.96321C9.28172 6.85658 9.19726 6.71868 9.18396 6.61648C9.17066 6.51428 9.18396 6.48324 9.18396 6.41651C9.18396 6.34978 9.18396 6.22098 9.18396 6.11878C9.18396 5.89664 9.43292 5.86538 9.58389 5.74544C9.65716 5.69341 9.71549 5.62294 9.75282 5.54104C9.75282 5.46101 9.66836 5.36768 9.61072 5.31891C9.53419 5.26244 9.43782 5.24004 9.34402 5.25661C9.25956 5.25661 9.14849 5.22558 9.07289 5.25661C8.85519 5.38098 8.93966 5.73214 8.93966 5.93211C8.95529 6.03384 8.95529 6.13721 8.93966 6.23871C8.90862 6.30544 8.81529 6.36751 8.76629 6.42094C8.71146 6.48931 8.63142 6.53248 8.54416 6.54088C8.46296 6.54974 8.38106 6.54974 8.29962 6.54088C8.19299 6.54088 8.11296 6.49654 8.11296 6.38081C8.11436 6.27161 8.16709 6.16964 8.25506 6.10524C8.35002 6.04434 8.42796 5.96011 8.48162 5.86071C8.51896 5.75524 8.52946 5.64231 8.51266 5.53194C8.51266 5.47851 8.54369 5.33641 8.51266 5.29651C8.48162 5.25661 8.29496 5.29651 8.25039 5.29651C8.14352 5.29464 8.03736 5.31588 7.93936 5.35881C7.88149 5.39871 7.86376 5.46988 7.81056 5.50091C7.68176 5.58538 7.49509 5.54081 7.36606 5.53638C7.20226 5.54571 7.05106 5.62714 6.95283 5.75851C6.87699 5.81824 6.81726 5.89618 6.77946 5.98508C6.68193 6.14958 6.54636 6.28841 6.38396 6.38944C6.25073 6.51824 6.18843 6.68274 6.06406 6.81154C5.97516 6.81154 5.94413 6.84258 5.85523 6.84258C5.69959 6.84258 5.67743 6.84258 5.60183 6.99378C5.56636 7.05794 5.52156 7.11651 5.46859 7.16714L5.40629 7.26048C5.30409 7.31834 5.17086 7.14054 5.13073 7.06938C5.08126 6.99611 5.05629 6.90884 5.05956 6.82041C5.06796 6.74504 5.06796 6.66898 5.05956 6.59384C4.98839 6.42491 4.66406 6.44264 4.52639 6.44708C4.45966 6.44708 4.31756 6.48698 4.28186 6.40718C4.36259 6.31921 4.38033 6.28818 4.47366 6.25691Z" fill="url(#paint1_linear)"/>
<path d="M34.8882 15.7228C34.7771 15.7851 34.706 15.7627 34.6348 15.6472C34.5636 15.5317 34.537 15.4606 34.4747 15.3761C34.3504 15.2083 34.1436 15.1227 33.9369 15.154C33.8856 15.1449 33.8328 15.1449 33.7813 15.154C33.7101 15.1761 33.6835 15.234 33.6079 15.2473C33.4065 15.2828 33.2005 15.2828 32.9991 15.2473C32.8302 15.2207 32.7457 15.0784 32.6435 14.9451C32.5161 14.7673 32.424 14.5667 32.3724 14.3541C32.3547 14.2258 32.3547 14.0958 32.3724 13.9675C32.3682 13.8363 32.3365 13.7075 32.2791 13.5897C32.2443 13.4973 32.2175 13.4023 32.199 13.3053C32.2182 13.1772 32.2074 13.0465 32.168 12.9231C32.1281 12.8519 32.0658 12.7987 32.0303 12.7231C31.9949 12.6475 31.9148 12.5054 31.8703 12.4032L31.8437 12.2833C31.8056 12.2179 31.7772 12.1477 31.7592 12.0744C31.7592 12.0033 31.7592 11.9232 31.7592 11.8523C31.7592 11.7814 31.6925 11.6834 31.6836 11.5945C31.6747 11.5056 31.6836 11.4612 31.6836 11.3989C31.6346 11.1206 31.5525 10.849 31.4391 10.5902C31.3989 10.4766 31.332 10.3744 31.2435 10.2925C31.1444 10.2141 31.0576 10.1212 30.9857 10.0169C30.94 9.89183 30.9012 9.7642 30.8702 9.6347C30.8158 9.5234 30.7405 9.42376 30.6481 9.3414C30.5673 9.25483 30.5013 9.1559 30.4525 9.0481C30.3844 8.9347 30.299 8.83273 30.1991 8.74593C30.1018 8.6694 30.019 8.57606 29.9546 8.47036C29.9236 8.39476 29.9236 8.30586 29.8967 8.2305C29.8734 8.15536 29.8585 8.0779 29.8524 7.9995C29.8263 7.8602 29.7768 7.7265 29.7056 7.604C29.6522 7.50623 29.6613 7.36413 29.5901 7.2841C29.4912 7.18586 29.3825 7.0979 29.2658 7.02183C29.154 6.9313 29.0472 6.83493 28.9459 6.73296C28.8673 6.66623 28.797 6.59016 28.7371 6.5064C28.6659 6.39533 28.5859 6.302 28.5105 6.1998C28.4349 6.0976 28.4305 5.99983 28.346 5.93753C28.2615 5.87523 28.0926 5.93753 28.0483 5.82203V5.75086C28.0319 5.70816 28.0126 5.66663 27.9904 5.6265C27.9281 5.45756 27.9904 5.2709 27.9148 5.09776C27.8931 5.01096 27.8572 4.92836 27.8082 4.85323C27.7547 4.78206 27.6525 4.72886 27.6215 4.63996C27.6171 4.58676 27.6171 4.53333 27.6215 4.4799C27.6215 4.42203 27.5905 4.3777 27.5772 4.31983C27.5657 4.2342 27.5354 4.1523 27.4883 4.07996L27.3639 3.89773C27.3049 3.81956 27.2556 3.7344 27.2171 3.64433C27.1625 3.54236 27.1294 3.4306 27.1194 3.31556C27.1194 3.2577 27.1194 3.1912 27.1194 3.13776C27.1194 3.08433 26.9549 3.00896 26.8928 2.94666C26.8305 2.88436 26.7416 2.7866 26.6483 2.71123C26.5526 2.62676 26.4688 2.52946 26.3993 2.42236C31.1826 5.25456 34.3336 10.1921 34.8882 15.7228Z" fill="url(#paint2_linear)"/>
<path d="M9.65532 33.1252L9.85529 33.2274L9.69966 33.1474H9.65532V33.1252ZM8.11789 32.2586C8.52225 32.5165 8.93105 32.7519 9.35339 32.9785L9.29109 32.943C8.95345 32.7608 8.62002 32.5697 8.29569 32.3697L8.11789 32.2586ZM4.38479 29.0545C5.34845 30.1488 6.44582 31.1179 7.65122 31.9387L7.48229 31.8232C6.33872 31.0276 5.29432 30.0982 4.37149 29.0547L4.38479 29.0545ZM4.34045 29.019L4.36705 29.0501L4.34045 29.019ZM34.0573 11.8875V11.9365V11.8875Z" fill="#E06B58"/>
<path d="M24.7515 33.4054C24.4183 33.5566 24.0805 33.6987 23.7384 33.8275C23.5251 33.912 23.2939 33.9875 23.0895 34.0629C23.6549 33.8734 24.2097 33.6539 24.7515 33.4054ZM8.30899 32.3654C8.63332 32.5654 8.96675 32.7565 9.30439 32.9387L8.85989 32.6898L8.31318 32.3654H8.30899ZM2.80278 26.9705C3.25195 27.6679 3.75082 28.3318 4.29588 28.9569L4.32248 28.9835V29.0101L4.34908 29.0411C5.27192 30.0846 6.31632 31.0142 7.45989 31.8096C7.23775 31.654 7.01539 31.4942 6.80655 31.3252C6.15555 30.8306 5.54492 30.2853 4.98002 29.6942C4.81552 29.5342 4.66012 29.3699 4.50892 29.201C3.87332 28.4989 3.29535 27.7471 2.78015 26.9523L2.80278 26.9705ZM34.706 19.8956V19.9535C34.7079 19.9344 34.7079 19.915 34.706 19.8956ZM34.706 19.558V19.6912C34.706 19.6469 34.706 19.6023 34.706 19.558ZM34.7328 19.1847C34.7328 19.2603 34.7328 19.3403 34.7107 19.4157C34.7104 19.3403 34.7104 19.2603 34.7328 19.1847ZM34.7816 18.5759C34.7816 18.7759 34.7506 18.9802 34.7326 19.1802C34.7328 18.9802 34.7683 18.7759 34.7816 18.5759ZM34.7816 18.2915V18.5715V18.2915ZM34.7816 18.0115V18.1937C34.7816 18.1314 34.7816 18.0693 34.7816 18.0115ZM34.7816 17.7359C34.7837 17.773 34.7837 17.8101 34.7816 17.847C34.7839 17.8101 34.7839 17.773 34.7816 17.7359ZM34.6971 15.6917C34.7415 16.1362 34.7727 16.5804 34.7816 17.0249C34.7816 16.5804 34.7417 16.1362 34.6971 15.6917Z" fill="#D1D5D7"/>
<path d="M9.60211 30.1345C9.59534 30.2514 9.59534 30.3686 9.60211 30.4857C9.61097 30.5475 9.61097 30.6105 9.60211 30.6724C9.56221 30.8901 9.38441 30.8901 9.25094 31.01C9.11771 31.1299 9.21547 31.3432 9.25094 31.4545C9.28641 31.5656 9.35314 31.57 9.37531 31.6811C9.38207 31.7772 9.38207 31.8738 9.37531 31.9699C9.37531 32.3876 9.65974 32.7299 9.67304 33.1431H9.62871H9.67304L9.82867 33.2232C13.961 35.2221 18.7119 35.5222 23.0629 34.0587C23.2806 33.9831 23.5074 33.9075 23.7118 33.8233C24.0541 33.6945 24.3917 33.5522 24.7249 33.4012C24.3917 33.5524 24.0538 33.6945 23.7118 33.8233L23.614 33.761C23.498 33.7041 23.3695 33.6782 23.2407 33.6854C23.0939 33.6854 22.9474 33.6854 22.8186 33.6854H22.3741C22.0509 33.6957 21.7275 33.6702 21.4097 33.6098C21.2636 33.5792 21.1145 33.5659 20.9652 33.5699C20.8364 33.5699 20.7074 33.5699 20.5786 33.5699C20.4498 33.5699 20.3207 33.5699 20.1964 33.5699H20.1208C19.8137 33.5316 19.5141 33.4476 19.232 33.3209C19.074 33.271 18.9086 33.2486 18.7432 33.2542H18.5255C18.3022 33.261 18.0863 33.1739 17.93 33.0143C17.7942 32.9075 17.6449 32.8193 17.4855 32.7521C17.2874 32.669 17.0774 32.6181 16.8634 32.6009C16.6509 32.6128 16.4481 32.5115 16.3303 32.3342C16.3613 32.2541 16.6103 32.2674 16.6947 32.2364C16.8947 32.1741 17.1035 32.1076 17.3124 32.0542C17.4661 32.0427 17.6169 32.0035 17.7569 31.9387C17.9249 31.8521 18.1003 31.7807 18.2812 31.7254C18.5297 31.6246 18.7691 31.5026 18.9966 31.3609C19.1522 31.2587 19.1076 31.2277 18.9966 31.1031C18.8969 30.9736 18.8325 30.8205 18.8099 30.6586L18.161 30.783C18.1937 30.8131 18.2142 30.8541 18.2189 30.8985C18.2189 30.9785 18.0812 31.0896 18.0233 31.143C17.9685 31.1918 17.9179 31.2454 17.8721 31.3031C17.8278 31.392 17.8455 31.4008 17.7522 31.4543C17.6862 31.4928 17.6106 31.5112 17.5345 31.5077C17.3828 31.4965 17.2335 31.4652 17.09 31.4144C16.9689 31.3782 16.8429 31.3616 16.7167 31.3654H16.499C16.4024 31.37 16.3074 31.3927 16.219 31.4321C16.138 31.4841 16.0533 31.5301 15.9656 31.5698C15.896 31.577 15.826 31.577 15.7567 31.5698H15.5612H15.379H15.2278C15.1879 31.5742 15.1477 31.5742 15.1078 31.5698C14.9823 31.5415 14.86 31.5 14.7434 31.4454C14.5434 31.4092 14.3416 31.384 14.139 31.3698C13.9699 31.3255 13.7974 31.2942 13.6236 31.2765C13.3165 31.1831 13.03 31.0322 12.7792 30.832C11.6631 30.6782 10.5648 30.4162 9.49944 30.0498L9.60211 30.1345ZM4.60714 29.2147H4.54041C4.69161 29.3837 4.84701 29.5479 5.01151 29.708C5.57337 30.3002 6.18121 30.8469 6.82917 31.3434C7.04244 31.5124 7.27367 31.6722 7.48251 31.8278L7.65144 31.9433C7.80264 32.05 7.96247 32.1522 8.09594 32.2544L8.27374 32.3654L8.82044 32.6898L9.26494 32.9387L9.32724 32.9742L8.81624 32.6898C8.80457 32.5873 8.78357 32.4863 8.75394 32.3876C8.70051 32.232 8.63844 32.2231 8.48724 32.1921C8.24341 32.1571 8.00377 32.0976 7.77184 32.0143C7.56931 31.9181 7.40061 31.7632 7.28744 31.5698C7.20297 31.423 7.16751 31.3119 6.99414 31.3119H6.95424H6.80304C6.15204 30.8173 5.54141 30.272 4.97651 29.6809C4.93217 29.5965 4.91421 29.4987 4.86987 29.4054C4.81247 29.2873 4.70164 29.2045 4.57214 29.1832L4.60714 29.2147ZM32.6974 15.0386C32.637 15.7537 32.5332 16.4647 32.3864 17.1673C32.4576 17.2223 32.514 17.294 32.5509 17.3761C32.5908 17.5182 32.5509 17.665 32.5509 17.7938C32.5745 17.8563 32.6074 17.9146 32.6487 17.9671C32.7189 18.0873 32.77 18.2177 32.7999 18.3538C32.8416 18.5586 32.8638 18.767 32.8666 18.9758C32.8888 19.3146 32.8888 19.6546 32.8666 19.9934C32.7854 20.3462 32.6582 20.6869 32.4888 21.0065C32.4314 21.1237 32.3549 21.2303 32.2623 21.322C32.1867 21.4242 32.1645 21.5574 32.08 21.6687C31.9956 21.7798 31.8446 21.882 31.7377 22.0064C31.5732 22.2108 31.4045 22.393 31.2267 22.5797C31.107 22.7138 31.0053 22.8634 30.9246 23.0242C30.866 23.1996 30.7771 23.3634 30.6623 23.5086C30.6224 23.5396 30.5645 23.5664 30.5291 23.5975C30.4635 23.6901 30.4194 23.7965 30.4003 23.9085C30.3774 24.1523 30.3111 24.3901 30.2047 24.6106C30.0953 24.7429 30.0094 24.8934 29.9513 25.0551C29.9159 25.1883 29.907 25.3218 29.858 25.455C29.7602 25.7129 29.7469 25.8683 30.0092 26.0239C30.1074 26.0876 30.2136 26.1382 30.3247 26.1751C30.4269 26.1751 30.6313 26.1751 30.7157 26.2374C30.8002 26.2997 30.8401 26.6819 30.8179 26.8417C30.7764 26.9967 30.7437 27.1539 30.7202 27.3128C30.7377 27.4671 30.7813 27.6173 30.849 27.7573C30.8592 27.8455 30.8849 27.9312 30.9246 28.0107C31.0023 28.1297 31.1054 28.2301 31.2267 28.304C33.0374 26.0136 34.2419 23.3037 34.7286 20.4248V20.3805V20.3406V20.2916V20.2382V20.1983V20.0027V19.9449V19.7227C34.7286 19.6784 34.7286 19.6338 34.7286 19.5895V19.5496V19.5053V19.4609C34.7286 19.3853 34.7286 19.3053 34.7508 19.2299C34.7508 19.03 34.7862 18.8256 34.7998 18.6256V18.3456V18.2124C34.7998 18.1501 34.7998 18.088 34.7998 18.0301V17.8656C34.8021 17.8285 34.8021 17.7914 34.7998 17.7546V17.5012V17.0567C34.7998 16.6122 34.7599 16.1679 34.7153 15.7234C34.685 15.7432 34.6495 15.754 34.6131 15.7544C34.5552 15.7544 34.5109 15.7234 34.4663 15.6478C34.422 15.5722 34.3686 15.4611 34.3063 15.3767C34.1819 15.2089 33.9752 15.1233 33.7684 15.1545H33.6795C33.6576 15.1499 33.6347 15.1499 33.6128 15.1545C33.5416 15.1767 33.515 15.2346 33.4394 15.2479C33.3326 15.2691 33.2238 15.2794 33.1151 15.2789C33.0204 15.2854 32.9254 15.2854 32.8307 15.2789C32.7166 15.2525 32.6176 15.1823 32.5551 15.0834" fill="#D1D5D7"/>
<path d="M18.2678 30.8324C16.4873 31.1348 14.6705 31.1618 12.8818 30.9124C13.1326 31.1126 13.4192 31.2633 13.7262 31.3569C13.9003 31.3746 14.0725 31.4059 14.2417 31.4502C14.4444 31.4645 14.646 31.4897 14.846 31.5258C14.9627 31.5804 15.0847 31.6222 15.2105 31.6502C15.2504 31.6546 15.2905 31.6546 15.3304 31.6502H15.4816H15.6638H15.8594C15.9289 31.6574 15.9989 31.6574 16.0682 31.6502C16.1559 31.6105 16.2404 31.5643 16.3216 31.5125C16.41 31.4731 16.505 31.4507 16.6016 31.4458H16.8193C16.9455 31.4421 17.0715 31.4586 17.1926 31.4948C17.3359 31.5457 17.4855 31.5769 17.6371 31.5881C17.7134 31.5916 17.789 31.5732 17.8548 31.5347C17.9482 31.4813 17.9304 31.4724 17.9748 31.3835C18.0205 31.3259 18.0709 31.2724 18.126 31.2234C18.1838 31.17 18.3171 31.0589 18.3215 30.9789C18.3171 30.9346 18.2965 30.8935 18.2636 30.8634L18.2678 30.8324ZM1.27393 24.0153C1.68693 25.0473 2.19886 26.0371 2.80273 26.9705C3.31769 27.7652 3.89589 28.517 4.53149 29.2191H4.60709C4.73659 29.2406 4.84742 29.3234 4.90482 29.4412C4.94916 29.5346 4.96712 29.6323 5.01146 29.7168C5.57356 30.306 6.18139 30.8496 6.82912 31.3434H6.98032H7.02022C7.19359 31.3434 7.22906 31.4544 7.31352 31.6012C7.42669 31.7946 7.59539 31.9496 7.79792 32.0457C8.02986 32.1288 8.26949 32.1885 8.51332 32.2235C8.66452 32.2545 8.72659 32.2634 8.78002 32.419C8.80966 32.5177 8.83042 32.6188 8.84232 32.7212L9.35332 33.0056L9.65549 33.1568H9.69982C9.69982 32.7436 9.41539 32.4013 9.40209 31.9836C9.40886 31.8875 9.40886 31.7909 9.40209 31.6948C9.37992 31.5837 9.31762 31.5615 9.27772 31.4682C9.23782 31.3749 9.16666 31.1126 9.27772 31.0237C9.38879 30.9348 9.58876 30.9038 9.62889 30.6861C9.63776 30.6242 9.63776 30.5612 9.62889 30.4994C9.62212 30.3825 9.62212 30.2654 9.62889 30.1482C6.28826 28.9944 3.37556 26.8564 1.27393 24.0153ZM32.4129 17.1982C30.9824 23.9754 25.692 29.2728 18.9167 30.7124C18.9394 30.8741 19.0038 31.0274 19.1034 31.1569C19.21 31.2813 19.2546 31.3126 19.1034 31.4148C18.8757 31.5564 18.6363 31.6782 18.388 31.7792C18.2072 31.8345 18.0317 31.9059 17.8637 31.9925C17.7237 32.0574 17.5732 32.0966 17.4192 32.108C17.2104 32.1614 17.0015 32.2279 16.8016 32.2902C16.7171 32.3213 16.4684 32.2902 16.4371 32.388C16.5549 32.5651 16.7579 32.6666 16.9703 32.6547C17.1842 32.6717 17.3945 32.7228 17.5923 32.8059C17.7515 32.8731 17.901 32.9613 18.0368 33.0682C18.1932 33.2278 18.409 33.3148 18.6323 33.308H18.8278C18.9935 33.3022 19.1587 33.3248 19.3167 33.3748C19.599 33.5015 19.8984 33.5852 20.2054 33.6237H20.281H20.6632H21.0499C21.199 33.6198 21.3481 33.6333 21.4944 33.6636C21.8122 33.7241 22.1356 33.7495 22.4587 33.7392H22.9032H23.3253C23.4541 33.732 23.5827 33.7579 23.6987 33.8148L23.7964 33.8771C24.1385 33.7483 24.4764 33.606 24.8096 33.455C27.3272 32.276 29.5271 30.5134 31.2267 28.3133C31.1053 28.2393 31.0022 28.139 30.9245 28.02C30.8848 27.9407 30.8592 27.8548 30.8489 27.7666C30.7812 27.6268 30.7376 27.4766 30.7201 27.3221C30.746 27.1571 30.7815 26.994 30.8267 26.8333C30.8267 26.6821 30.8622 26.3311 30.7245 26.2289C30.5869 26.1267 30.4357 26.189 30.3335 26.1666C30.2222 26.13 30.1162 26.0791 30.018 26.0154C29.7557 25.8598 29.7691 25.7044 29.8668 25.4466C29.9158 25.3133 29.9247 25.1799 29.9601 25.0466C30.0182 24.8849 30.1039 24.7347 30.2135 24.6021C30.3258 24.3973 30.4025 24.1749 30.4401 23.9444C30.4592 23.8324 30.5033 23.726 30.5689 23.6333C30.6044 23.6023 30.6622 23.5755 30.7021 23.5444C30.8169 23.3993 30.9056 23.2355 30.9644 23.06C31.0451 22.8993 31.1469 22.7499 31.2666 22.6155C31.4444 22.4289 31.6133 22.2466 31.7776 22.0422C31.8842 21.9179 32.0221 21.8245 32.1196 21.7046C32.2174 21.5847 32.2263 21.4601 32.3019 21.3579C32.3945 21.2662 32.471 21.1595 32.5284 21.0424C32.6978 20.7225 32.825 20.3818 32.9062 20.0293C32.9284 19.6905 32.9284 19.3505 32.9062 19.0117C32.9036 18.8026 32.8812 18.5943 32.8395 18.3896C32.8096 18.2536 32.7585 18.1232 32.6883 18.003C32.647 17.9505 32.6141 17.8922 32.5905 17.8296C32.5905 17.7008 32.626 17.5541 32.5905 17.412C32.5536 17.3298 32.4972 17.2582 32.426 17.2031" fill="url(#paint3_linear)"/>
<path d="M31.511 7.05273C32.354 9.1336 32.7857 11.358 32.782 13.6031C32.782 14.0964 32.782 14.5852 32.7241 15.0696C32.7866 15.1685 32.8856 15.2388 32.9997 15.2651C33.0944 15.2717 33.1894 15.2717 33.2841 15.2651C33.3931 15.2656 33.5016 15.2551 33.6084 15.2341C33.684 15.2341 33.7106 15.1629 33.7818 15.1408C33.8037 15.1361 33.8266 15.1361 33.8485 15.1408H33.9374C34.1439 15.1097 34.3509 15.1951 34.4753 15.3629C34.5376 15.4474 34.5775 15.5407 34.6353 15.634C34.6932 15.7274 34.7242 15.7407 34.7819 15.7407C34.8183 15.7402 34.8537 15.7295 34.8841 15.7096C34.7581 14.4226 34.4867 13.1539 34.0753 11.9278V11.8788C33.5296 10.2772 32.7558 8.76237 31.7777 7.3815L31.5423 7.0616" fill="url(#paint4_linear)"/>
</g>
<defs>
<linearGradient id="paint0_linear" x1="16.467" y1="7.09985" x2="16.467" y2="33.8595" gradientUnits="userSpaceOnUse">
<stop stop-color="#4DA0DC"/>
<stop offset="1" stop-color="#CB78D1"/>
</linearGradient>
<linearGradient id="paint1_linear" x1="12.8157" y1="0.0673828" x2="12.8157" y2="10.3612" gradientUnits="userSpaceOnUse">
<stop stop-color="#4DA0DC"/>
<stop offset="1" stop-color="#CB78D1"/>
</linearGradient>
<linearGradient id="paint2_linear" x1="30.6437" y1="2.42236" x2="30.6437" y2="15.7568" gradientUnits="userSpaceOnUse">
<stop stop-color="#4DA0DC"/>
<stop offset="1" stop-color="#CB78D1"/>
</linearGradient>
<linearGradient id="paint3_linear" x1="17.0984" y1="17.1982" x2="17.0984" y2="33.8771" gradientUnits="userSpaceOnUse">
<stop stop-color="#4994C9"/>
<stop offset="1" stop-color="#CA78D2"/>
</linearGradient>
<linearGradient id="paint4_linear" x1="33.1975" y1="7.05273" x2="33.1975" y2="15.7407" gradientUnits="userSpaceOnUse">
<stop stop-color="#4994C9"/>
<stop offset="1" stop-color="#CA78D2"/>
</linearGradient>
<clipPath id="clip0">
<rect width="35" height="35" fill="white"/>
</clipPath>
</defs>
</svg>
