<svg width="225" height="57" viewBox="0 0 225 57" fill="none" xmlns="http://www.w3.org/2000/svg">
<mask id="path-1-outside-1" maskUnits="userSpaceOnUse" x="0" y="0" width="225" height="57" fill="black">
<rect fill="white" width="225" height="57"/>
<path d="M46.35 14.25L34.65 42.45H22.15L21.55 26.55L15.15 42.45H2.65L1 14.25H12L11.35 31.4L18 14.25H29.85L30.65 31.6L36.1 14.25H46.35Z"/>
<path d="M68.466 14.05C71.1993 14.05 73.2994 14.85 74.766 16.45C76.2327 18.0167 76.966 20.1833 76.966 22.95C76.966 23.95 76.866 25 76.666 26.1L73.766 42.45H62.716L65.366 27.5C65.4327 26.9667 65.466 26.6 65.466 26.4C65.466 25.3667 65.166 24.5667 64.566 24C63.9994 23.4333 63.1993 23.15 62.166 23.15C60.9327 23.15 59.8993 23.5333 59.066 24.3C58.266 25.0667 57.7327 26.1333 57.466 27.5V27.45L54.816 42.45H43.716L50.266 5.45H61.366L59.066 18.5C60.166 17.1667 61.516 16.1 63.116 15.3C64.716 14.4667 66.4994 14.05 68.466 14.05Z"/>
<path d="M91.9293 42.8C89.4293 42.8 87.2293 42.3167 85.3293 41.35C83.4293 40.3833 81.946 39.0167 80.8793 37.25C79.8126 35.45 79.2793 33.3667 79.2793 31C79.2793 27.7333 80.046 24.8 81.5793 22.2C83.146 19.6 85.2793 17.5667 87.9793 16.1C90.6793 14.6333 93.696 13.9 97.0293 13.9C99.5293 13.9 101.729 14.4 103.629 15.4C105.529 16.3667 107.013 17.75 108.079 19.55C109.146 21.3167 109.679 23.3833 109.679 25.75C109.679 29.0167 108.913 31.95 107.379 34.55C105.846 37.15 103.729 39.1833 101.029 40.65C98.3293 42.0833 95.296 42.8 91.9293 42.8ZM93.6293 33.2C95.0626 33.2 96.196 32.55 97.0293 31.25C97.8626 29.95 98.2793 28.5 98.2793 26.9C98.2793 25.7667 97.996 24.9167 97.4293 24.35C96.896 23.7833 96.196 23.5 95.3293 23.5C93.896 23.5 92.7626 24.15 91.9293 25.45C91.096 26.75 90.6793 28.2 90.6793 29.8C90.6793 30.9333 90.946 31.7833 91.4793 32.35C92.0126 32.9167 92.7293 33.2 93.6293 33.2Z"/>
<path d="M121.366 12C119.633 12 118.266 11.5833 117.266 10.75C116.3 9.91667 115.816 8.83333 115.816 7.5C115.816 6.33333 116.133 5.25 116.766 4.25C117.4 3.25 118.283 2.46667 119.416 1.9C120.583 1.3 121.866 1 123.266 1C124.966 1 126.3 1.43333 127.266 2.3C128.266 3.13333 128.766 4.23333 128.766 5.6C128.766 6.76667 128.45 7.83333 127.816 8.8C127.183 9.76667 126.3 10.55 125.166 11.15C124.033 11.7167 122.766 12 121.366 12ZM126.466 14.25L121.466 42.45H110.366L115.366 14.25H126.466Z"/>
<path d="M139.38 42.8C136.913 42.8 134.713 42.4333 132.78 41.7C130.88 40.9667 129.38 39.95 128.28 38.65C127.213 37.3167 126.68 35.8 126.68 34.1C126.68 33.4667 126.713 33 126.78 32.7H137.43C137.396 33.5333 137.63 34.15 138.13 34.55C138.663 34.95 139.38 35.15 140.28 35.15C140.846 35.15 141.33 35.0167 141.73 34.75C142.163 34.4833 142.38 34.1667 142.38 33.8C142.38 33.2667 142.046 32.85 141.38 32.55C140.713 32.2167 139.613 31.85 138.08 31.45C136.146 30.9167 134.53 30.3667 133.23 29.8C131.963 29.2333 130.846 28.4 129.88 27.3C128.946 26.1667 128.48 24.7 128.48 22.9C128.48 21.2333 128.98 19.7167 129.98 18.35C131.013 16.95 132.446 15.8667 134.28 15.1C136.146 14.3 138.296 13.9 140.73 13.9C143.396 13.9 145.68 14.35 147.58 15.25C149.513 16.15 150.963 17.3667 151.93 18.9C152.896 20.4333 153.346 22.1333 153.28 24H143.43C143.43 23.2333 143.196 22.65 142.73 22.25C142.263 21.8167 141.58 21.6 140.68 21.6C140.113 21.6 139.63 21.7167 139.23 21.95C138.863 22.1833 138.68 22.5 138.68 22.9C138.68 23.4 139.013 23.8167 139.68 24.15C140.346 24.45 141.48 24.85 143.08 25.35C145.046 25.9167 146.663 26.4833 147.93 27.05C149.23 27.5833 150.363 28.4 151.33 29.5C152.296 30.5667 152.78 31.9333 152.78 33.6C152.78 36.5 151.53 38.7667 149.03 40.4C146.563 42 143.346 42.8 139.38 42.8Z"/>
<path d="M180.185 14.05C182.918 14.05 185.018 14.85 186.485 16.45C187.951 18.0167 188.685 20.1833 188.685 22.95C188.685 23.95 188.585 25 188.385 26.1L185.485 42.45H174.435L177.085 27.5C177.151 26.9667 177.185 26.6 177.185 26.4C177.185 25.3667 176.885 24.5667 176.285 24C175.718 23.4333 174.918 23.15 173.885 23.15C172.685 23.15 171.668 23.5333 170.835 24.3C170.001 25.0667 169.451 26.1167 169.185 27.45L166.535 42.45H155.435L160.435 14.25H171.535L170.785 18.5C171.885 17.1667 173.235 16.1 174.835 15.3C176.435 14.4667 178.218 14.05 180.185 14.05Z"/>
<path d="M205.498 13.9C207.331 13.9 208.848 14.2833 210.048 15.05C211.248 15.7833 212.081 16.8 212.548 18.1L213.248 14.25H224.298L219.398 41.95C218.931 44.5833 218.015 46.9833 216.648 49.15C215.315 51.3167 213.448 53.05 211.048 54.35C208.681 55.65 205.815 56.3 202.448 56.3C198.148 56.3 194.865 55.3333 192.598 53.4C190.331 51.5 189.198 48.8833 189.198 45.55C189.198 45.0833 189.215 44.7333 189.248 44.5H200.148C200.215 45.9667 201.281 46.7 203.348 46.7C204.648 46.7 205.715 46.3667 206.548 45.7C207.415 45.0333 208.015 43.7833 208.348 41.95L208.948 38.6C208.015 39.9 206.815 40.9333 205.348 41.7C203.881 42.4333 202.231 42.8 200.398 42.8C197.565 42.8 195.281 41.85 193.548 39.95C191.815 38.05 190.948 35.4167 190.948 32.05C190.948 30.7833 191.065 29.55 191.298 28.35C191.831 25.3833 192.798 22.8167 194.198 20.65C195.598 18.45 197.281 16.7833 199.248 15.65C201.215 14.4833 203.298 13.9 205.498 13.9ZM210.748 28.35C210.815 28.05 210.848 27.65 210.848 27.15C210.848 26.0167 210.548 25.15 209.948 24.55C209.348 23.9167 208.531 23.6 207.498 23.6C206.298 23.6 205.231 24.0167 204.298 24.85C203.398 25.6833 202.815 26.85 202.548 28.35C202.481 28.65 202.448 29.05 202.448 29.55C202.448 30.6833 202.748 31.5667 203.348 32.2C203.948 32.8 204.765 33.1 205.798 33.1C206.998 33.1 208.048 32.6833 208.948 31.85C209.881 31.0167 210.481 29.85 210.748 28.35Z"/>
</mask>
<path d="M46.35 14.25L34.65 42.45H22.15L21.55 26.55L15.15 42.45H2.65L1 14.25H12L11.35 31.4L18 14.25H29.85L30.65 31.6L36.1 14.25H46.35Z" fill="url(#paint0_linear)"/>
<path d="M68.466 14.05C71.1993 14.05 73.2994 14.85 74.766 16.45C76.2327 18.0167 76.966 20.1833 76.966 22.95C76.966 23.95 76.866 25 76.666 26.1L73.766 42.45H62.716L65.366 27.5C65.4327 26.9667 65.466 26.6 65.466 26.4C65.466 25.3667 65.166 24.5667 64.566 24C63.9994 23.4333 63.1993 23.15 62.166 23.15C60.9327 23.15 59.8993 23.5333 59.066 24.3C58.266 25.0667 57.7327 26.1333 57.466 27.5V27.45L54.816 42.45H43.716L50.266 5.45H61.366L59.066 18.5C60.166 17.1667 61.516 16.1 63.116 15.3C64.716 14.4667 66.4994 14.05 68.466 14.05Z" fill="url(#paint1_linear)"/>
<path d="M91.9293 42.8C89.4293 42.8 87.2293 42.3167 85.3293 41.35C83.4293 40.3833 81.946 39.0167 80.8793 37.25C79.8126 35.45 79.2793 33.3667 79.2793 31C79.2793 27.7333 80.046 24.8 81.5793 22.2C83.146 19.6 85.2793 17.5667 87.9793 16.1C90.6793 14.6333 93.696 13.9 97.0293 13.9C99.5293 13.9 101.729 14.4 103.629 15.4C105.529 16.3667 107.013 17.75 108.079 19.55C109.146 21.3167 109.679 23.3833 109.679 25.75C109.679 29.0167 108.913 31.95 107.379 34.55C105.846 37.15 103.729 39.1833 101.029 40.65C98.3293 42.0833 95.296 42.8 91.9293 42.8ZM93.6293 33.2C95.0626 33.2 96.196 32.55 97.0293 31.25C97.8626 29.95 98.2793 28.5 98.2793 26.9C98.2793 25.7667 97.996 24.9167 97.4293 24.35C96.896 23.7833 96.196 23.5 95.3293 23.5C93.896 23.5 92.7626 24.15 91.9293 25.45C91.096 26.75 90.6793 28.2 90.6793 29.8C90.6793 30.9333 90.946 31.7833 91.4793 32.35C92.0126 32.9167 92.7293 33.2 93.6293 33.2Z" fill="url(#paint2_linear)"/>
<path d="M121.366 12C119.633 12 118.266 11.5833 117.266 10.75C116.3 9.91667 115.816 8.83333 115.816 7.5C115.816 6.33333 116.133 5.25 116.766 4.25C117.4 3.25 118.283 2.46667 119.416 1.9C120.583 1.3 121.866 1 123.266 1C124.966 1 126.3 1.43333 127.266 2.3C128.266 3.13333 128.766 4.23333 128.766 5.6C128.766 6.76667 128.45 7.83333 127.816 8.8C127.183 9.76667 126.3 10.55 125.166 11.15C124.033 11.7167 122.766 12 121.366 12ZM126.466 14.25L121.466 42.45H110.366L115.366 14.25H126.466Z" fill="url(#paint3_linear)"/>
<path d="M139.38 42.8C136.913 42.8 134.713 42.4333 132.78 41.7C130.88 40.9667 129.38 39.95 128.28 38.65C127.213 37.3167 126.68 35.8 126.68 34.1C126.68 33.4667 126.713 33 126.78 32.7H137.43C137.396 33.5333 137.63 34.15 138.13 34.55C138.663 34.95 139.38 35.15 140.28 35.15C140.846 35.15 141.33 35.0167 141.73 34.75C142.163 34.4833 142.38 34.1667 142.38 33.8C142.38 33.2667 142.046 32.85 141.38 32.55C140.713 32.2167 139.613 31.85 138.08 31.45C136.146 30.9167 134.53 30.3667 133.23 29.8C131.963 29.2333 130.846 28.4 129.88 27.3C128.946 26.1667 128.48 24.7 128.48 22.9C128.48 21.2333 128.98 19.7167 129.98 18.35C131.013 16.95 132.446 15.8667 134.28 15.1C136.146 14.3 138.296 13.9 140.73 13.9C143.396 13.9 145.68 14.35 147.58 15.25C149.513 16.15 150.963 17.3667 151.93 18.9C152.896 20.4333 153.346 22.1333 153.28 24H143.43C143.43 23.2333 143.196 22.65 142.73 22.25C142.263 21.8167 141.58 21.6 140.68 21.6C140.113 21.6 139.63 21.7167 139.23 21.95C138.863 22.1833 138.68 22.5 138.68 22.9C138.68 23.4 139.013 23.8167 139.68 24.15C140.346 24.45 141.48 24.85 143.08 25.35C145.046 25.9167 146.663 26.4833 147.93 27.05C149.23 27.5833 150.363 28.4 151.33 29.5C152.296 30.5667 152.78 31.9333 152.78 33.6C152.78 36.5 151.53 38.7667 149.03 40.4C146.563 42 143.346 42.8 139.38 42.8Z" fill="url(#paint4_linear)"/>
<path d="M180.185 14.05C182.918 14.05 185.018 14.85 186.485 16.45C187.951 18.0167 188.685 20.1833 188.685 22.95C188.685 23.95 188.585 25 188.385 26.1L185.485 42.45H174.435L177.085 27.5C177.151 26.9667 177.185 26.6 177.185 26.4C177.185 25.3667 176.885 24.5667 176.285 24C175.718 23.4333 174.918 23.15 173.885 23.15C172.685 23.15 171.668 23.5333 170.835 24.3C170.001 25.0667 169.451 26.1167 169.185 27.45L166.535 42.45H155.435L160.435 14.25H171.535L170.785 18.5C171.885 17.1667 173.235 16.1 174.835 15.3C176.435 14.4667 178.218 14.05 180.185 14.05Z" fill="url(#paint5_linear)"/>
<path d="M205.498 13.9C207.331 13.9 208.848 14.2833 210.048 15.05C211.248 15.7833 212.081 16.8 212.548 18.1L213.248 14.25H224.298L219.398 41.95C218.931 44.5833 218.015 46.9833 216.648 49.15C215.315 51.3167 213.448 53.05 211.048 54.35C208.681 55.65 205.815 56.3 202.448 56.3C198.148 56.3 194.865 55.3333 192.598 53.4C190.331 51.5 189.198 48.8833 189.198 45.55C189.198 45.0833 189.215 44.7333 189.248 44.5H200.148C200.215 45.9667 201.281 46.7 203.348 46.7C204.648 46.7 205.715 46.3667 206.548 45.7C207.415 45.0333 208.015 43.7833 208.348 41.95L208.948 38.6C208.015 39.9 206.815 40.9333 205.348 41.7C203.881 42.4333 202.231 42.8 200.398 42.8C197.565 42.8 195.281 41.85 193.548 39.95C191.815 38.05 190.948 35.4167 190.948 32.05C190.948 30.7833 191.065 29.55 191.298 28.35C191.831 25.3833 192.798 22.8167 194.198 20.65C195.598 18.45 197.281 16.7833 199.248 15.65C201.215 14.4833 203.298 13.9 205.498 13.9ZM210.748 28.35C210.815 28.05 210.848 27.65 210.848 27.15C210.848 26.0167 210.548 25.15 209.948 24.55C209.348 23.9167 208.531 23.6 207.498 23.6C206.298 23.6 205.231 24.0167 204.298 24.85C203.398 25.6833 202.815 26.85 202.548 28.35C202.481 28.65 202.448 29.05 202.448 29.55C202.448 30.6833 202.748 31.5667 203.348 32.2C203.948 32.8 204.765 33.1 205.798 33.1C206.998 33.1 208.048 32.6833 208.948 31.85C209.881 31.0167 210.481 29.85 210.748 28.35Z" fill="url(#paint6_linear)"/>
<path d="M46.35 14.25L34.65 42.45H22.15L21.55 26.55L15.15 42.45H2.65L1 14.25H12L11.35 31.4L18 14.25H29.85L30.65 31.6L36.1 14.25H46.35Z" stroke="#9E8605" mask="url(#path-1-outside-1)"/>
<path d="M68.466 14.05C71.1993 14.05 73.2994 14.85 74.766 16.45C76.2327 18.0167 76.966 20.1833 76.966 22.95C76.966 23.95 76.866 25 76.666 26.1L73.766 42.45H62.716L65.366 27.5C65.4327 26.9667 65.466 26.6 65.466 26.4C65.466 25.3667 65.166 24.5667 64.566 24C63.9994 23.4333 63.1993 23.15 62.166 23.15C60.9327 23.15 59.8993 23.5333 59.066 24.3C58.266 25.0667 57.7327 26.1333 57.466 27.5V27.45L54.816 42.45H43.716L50.266 5.45H61.366L59.066 18.5C60.166 17.1667 61.516 16.1 63.116 15.3C64.716 14.4667 66.4994 14.05 68.466 14.05Z" stroke="#9E8605" mask="url(#path-1-outside-1)"/>
<path d="M91.9293 42.8C89.4293 42.8 87.2293 42.3167 85.3293 41.35C83.4293 40.3833 81.946 39.0167 80.8793 37.25C79.8126 35.45 79.2793 33.3667 79.2793 31C79.2793 27.7333 80.046 24.8 81.5793 22.2C83.146 19.6 85.2793 17.5667 87.9793 16.1C90.6793 14.6333 93.696 13.9 97.0293 13.9C99.5293 13.9 101.729 14.4 103.629 15.4C105.529 16.3667 107.013 17.75 108.079 19.55C109.146 21.3167 109.679 23.3833 109.679 25.75C109.679 29.0167 108.913 31.95 107.379 34.55C105.846 37.15 103.729 39.1833 101.029 40.65C98.3293 42.0833 95.296 42.8 91.9293 42.8ZM93.6293 33.2C95.0626 33.2 96.196 32.55 97.0293 31.25C97.8626 29.95 98.2793 28.5 98.2793 26.9C98.2793 25.7667 97.996 24.9167 97.4293 24.35C96.896 23.7833 96.196 23.5 95.3293 23.5C93.896 23.5 92.7626 24.15 91.9293 25.45C91.096 26.75 90.6793 28.2 90.6793 29.8C90.6793 30.9333 90.946 31.7833 91.4793 32.35C92.0126 32.9167 92.7293 33.2 93.6293 33.2Z" stroke="#9E8605" mask="url(#path-1-outside-1)"/>
<path d="M121.366 12C119.633 12 118.266 11.5833 117.266 10.75C116.3 9.91667 115.816 8.83333 115.816 7.5C115.816 6.33333 116.133 5.25 116.766 4.25C117.4 3.25 118.283 2.46667 119.416 1.9C120.583 1.3 121.866 1 123.266 1C124.966 1 126.3 1.43333 127.266 2.3C128.266 3.13333 128.766 4.23333 128.766 5.6C128.766 6.76667 128.45 7.83333 127.816 8.8C127.183 9.76667 126.3 10.55 125.166 11.15C124.033 11.7167 122.766 12 121.366 12ZM126.466 14.25L121.466 42.45H110.366L115.366 14.25H126.466Z" stroke="#9E8605" mask="url(#path-1-outside-1)"/>
<path d="M139.38 42.8C136.913 42.8 134.713 42.4333 132.78 41.7C130.88 40.9667 129.38 39.95 128.28 38.65C127.213 37.3167 126.68 35.8 126.68 34.1C126.68 33.4667 126.713 33 126.78 32.7H137.43C137.396 33.5333 137.63 34.15 138.13 34.55C138.663 34.95 139.38 35.15 140.28 35.15C140.846 35.15 141.33 35.0167 141.73 34.75C142.163 34.4833 142.38 34.1667 142.38 33.8C142.38 33.2667 142.046 32.85 141.38 32.55C140.713 32.2167 139.613 31.85 138.08 31.45C136.146 30.9167 134.53 30.3667 133.23 29.8C131.963 29.2333 130.846 28.4 129.88 27.3C128.946 26.1667 128.48 24.7 128.48 22.9C128.48 21.2333 128.98 19.7167 129.98 18.35C131.013 16.95 132.446 15.8667 134.28 15.1C136.146 14.3 138.296 13.9 140.73 13.9C143.396 13.9 145.68 14.35 147.58 15.25C149.513 16.15 150.963 17.3667 151.93 18.9C152.896 20.4333 153.346 22.1333 153.28 24H143.43C143.43 23.2333 143.196 22.65 142.73 22.25C142.263 21.8167 141.58 21.6 140.68 21.6C140.113 21.6 139.63 21.7167 139.23 21.95C138.863 22.1833 138.68 22.5 138.68 22.9C138.68 23.4 139.013 23.8167 139.68 24.15C140.346 24.45 141.48 24.85 143.08 25.35C145.046 25.9167 146.663 26.4833 147.93 27.05C149.23 27.5833 150.363 28.4 151.33 29.5C152.296 30.5667 152.78 31.9333 152.78 33.6C152.78 36.5 151.53 38.7667 149.03 40.4C146.563 42 143.346 42.8 139.38 42.8Z" stroke="#9E8605" mask="url(#path-1-outside-1)"/>
<path d="M180.185 14.05C182.918 14.05 185.018 14.85 186.485 16.45C187.951 18.0167 188.685 20.1833 188.685 22.95C188.685 23.95 188.585 25 188.385 26.1L185.485 42.45H174.435L177.085 27.5C177.151 26.9667 177.185 26.6 177.185 26.4C177.185 25.3667 176.885 24.5667 176.285 24C175.718 23.4333 174.918 23.15 173.885 23.15C172.685 23.15 171.668 23.5333 170.835 24.3C170.001 25.0667 169.451 26.1167 169.185 27.45L166.535 42.45H155.435L160.435 14.25H171.535L170.785 18.5C171.885 17.1667 173.235 16.1 174.835 15.3C176.435 14.4667 178.218 14.05 180.185 14.05Z" stroke="#9E8605" mask="url(#path-1-outside-1)"/>
<path d="M205.498 13.9C207.331 13.9 208.848 14.2833 210.048 15.05C211.248 15.7833 212.081 16.8 212.548 18.1L213.248 14.25H224.298L219.398 41.95C218.931 44.5833 218.015 46.9833 216.648 49.15C215.315 51.3167 213.448 53.05 211.048 54.35C208.681 55.65 205.815 56.3 202.448 56.3C198.148 56.3 194.865 55.3333 192.598 53.4C190.331 51.5 189.198 48.8833 189.198 45.55C189.198 45.0833 189.215 44.7333 189.248 44.5H200.148C200.215 45.9667 201.281 46.7 203.348 46.7C204.648 46.7 205.715 46.3667 206.548 45.7C207.415 45.0333 208.015 43.7833 208.348 41.95L208.948 38.6C208.015 39.9 206.815 40.9333 205.348 41.7C203.881 42.4333 202.231 42.8 200.398 42.8C197.565 42.8 195.281 41.85 193.548 39.95C191.815 38.05 190.948 35.4167 190.948 32.05C190.948 30.7833 191.065 29.55 191.298 28.35C191.831 25.3833 192.798 22.8167 194.198 20.65C195.598 18.45 197.281 16.7833 199.248 15.65C201.215 14.4833 203.298 13.9 205.498 13.9ZM210.748 28.35C210.815 28.05 210.848 27.65 210.848 27.15C210.848 26.0167 210.548 25.15 209.948 24.55C209.348 23.9167 208.531 23.6 207.498 23.6C206.298 23.6 205.231 24.0167 204.298 24.85C203.398 25.6833 202.815 26.85 202.548 28.35C202.481 28.65 202.448 29.05 202.448 29.55C202.448 30.6833 202.748 31.5667 203.348 32.2C203.948 32.8 204.765 33.1 205.798 33.1C206.998 33.1 208.048 32.6833 208.948 31.85C209.881 31.0167 210.481 29.85 210.748 28.35Z" stroke="#9E8605" mask="url(#path-1-outside-1)"/>
<defs>
<linearGradient id="paint0_linear" x1="111.55" y1="-12.55" x2="111.55" y2="62.45" gradientUnits="userSpaceOnUse">
<stop stop-color="#7590D4"/>
<stop offset="0.871527" stop-color="#D475D0"/>
</linearGradient>
<linearGradient id="paint1_linear" x1="111.55" y1="-12.55" x2="111.55" y2="62.45" gradientUnits="userSpaceOnUse">
<stop stop-color="#7590D4"/>
<stop offset="0.871527" stop-color="#D475D0"/>
</linearGradient>
<linearGradient id="paint2_linear" x1="111.55" y1="-12.55" x2="111.55" y2="62.45" gradientUnits="userSpaceOnUse">
<stop stop-color="#7590D4"/>
<stop offset="0.871527" stop-color="#D475D0"/>
</linearGradient>
<linearGradient id="paint3_linear" x1="111.55" y1="-12.55" x2="111.55" y2="62.45" gradientUnits="userSpaceOnUse">
<stop stop-color="#7590D4"/>
<stop offset="0.871527" stop-color="#D475D0"/>
</linearGradient>
<linearGradient id="paint4_linear" x1="111.55" y1="-12.55" x2="111.55" y2="62.45" gradientUnits="userSpaceOnUse">
<stop stop-color="#7590D4"/>
<stop offset="0.871527" stop-color="#D475D0"/>
</linearGradient>
<linearGradient id="paint5_linear" x1="111.55" y1="-12.55" x2="111.55" y2="62.45" gradientUnits="userSpaceOnUse">
<stop stop-color="#7590D4"/>
<stop offset="0.871527" stop-color="#D475D0"/>
</linearGradient>
<linearGradient id="paint6_linear" x1="111.55" y1="-12.55" x2="111.55" y2="62.45" gradientUnits="userSpaceOnUse">
<stop stop-color="#7590D4"/>
<stop offset="0.871527" stop-color="#D475D0"/>
</linearGradient>
</defs>
</svg>
